<svg 
          width="72.27827453613281" 
          height="72.27827453613281" fill="none" 
          xmlns="http://www.w3.org/2000/svg">
          <path d="M 68.262814839681 0 L 4.015459696451823 0 C 1.794910591538307 0 0 1.7989259995373081 0 4.015459696451823 L 0 68.262814839681 C 0 70.47934853659551 1.794910591538307 72.27827453613281 4.015459696451823 72.27827453613281 L 38.60864406231849 72.27827453613281 L 38.60864406231849 44.330674895650496 L 29.22050192666939 44.330674895650496 L 29.22050192666939 33.388545691042964 L 38.60864406231849 33.388545691042964 L 38.60864406231849 25.35762629813932 C 38.60864406231849 16.021682312416793 44.31059713763534 10.934096952569234 52.66275299989987 10.934096952569234 C 55.469559331549135 10.926066032794882 58.28037843845687 11.070622081070535 61.075138306769084 11.363750634603397 L 61.075138306769084 21.08116340637207 L 55.31295578684755 21.08116340637207 C 50.7835171650022 21.08116340637207 49.900117831619966 23.241479955260278 49.900117831619966 26.401646738282583 L 49.900117831619966 33.368471762468594 L 60.729814654895264 33.368471762468594 L 59.324402229360814 44.31059713763534 L 49.89610074824062 44.31059713763534 L 49.89610074824062 72.27827453613281 L 68.262814839681 72.27827453613281 C 70.48336394459452 72.27827453613281 72.27827453613281 70.47934853659551 72.27827453613281 68.262814839681 L 72.27827453613281 4.015459696451823 C 72.27827453613281 1.7989259995373081 70.48336394459452 0 68.262814839681 0 Z" fill="rgb(21.88486486673355,124.71908122301102,245.43749392032623)"/>
        </svg>