<svg 
          width="72.27827453613281" 
          height="72.398681640625" fill="none" 
          xmlns="http://www.w3.org/2000/svg">
          <path d="M 72.04548671934434 21.368812811334898 C 72.00133628391623 18.3304599130931 71.43941916370785 15.31618900043042 70.36375397701859 12.474506328913677 C 68.48133990031236 7.621972000314004 64.64828168889956 3.7848970827655677 59.79574747591202 1.9064967052183956 C 56.99018796922358 0.8508998540895103 54.02407822758218 0.28497127163428293 51.02184849885437 0.22075245153790782 C 47.16069216618674 0.04816437486516667 45.93652216287122 0 36.13512579687471 0 C 26.3337294308782 0 25.077448280096927 2.6913795314609246e-7 21.244387795963668 0.22075245153790782 C 18.24617193076486 0.28497127163428293 15.280064581460769 0.8508998540895103 12.474505074772324 1.9064967052183956 C 7.621970861784795 3.7848970827655677 3.784896035655073 7.621972000314004 1.9064957028609886 12.474506328913677 C 0.8508988768818098 15.280065902444875 0.28095729665105273 18.246172365481847 0.22476583133999894 21.244388302113464 C 0.052177758779186956 25.109558351164445 0 26.3337300582821 0 36.13512665779792 C 0 45.93652325731374 -2.990421629767148e-8 47.18879081363515 0.22476583133999894 51.02586501348238 C 0.2849709695406763 54.02809481373863 0.8508988768818098 56.99018884855339 1.9064957028609886 59.80377567086638 C 3.78890977956721 64.65229613584142 7.621970383317335 68.48937440266216 12.478518459833866 70.36777478020933 C 15.272036854402765 71.45949472932377 18.2381461175767 72.07758853445833 21.248403094895053 72.17391676086487 C 25.113573051857948 72.34650483753761 26.337744729809586 72.398681640625 36.139141095806096 72.398681640625 C 45.940537461802606 72.398681640625 47.19681861258388 72.39868262746415 51.02987909671714 72.17391676086487 C 54.02809496191595 72.1137116212298 56.9941972873117 71.54778848508009 59.803770418295414 70.49219163395121 C 64.65630463128295 68.60977751239628 68.48937049817513 64.77270151829603 70.37178457488136 59.924181053320986 C 71.42738140086054 57.11460785539889 71.99330452352707 54.15251764832391 72.05350966172774 51.14627422367676 C 72.22609773428856 47.28511779901668 72.27827453613283 46.06094680960023 72.27827453613283 36.25553586799231 C 72.27024718381203 26.45413926847649 72.27025258058856 25.20990087480676 72.04548671934434 21.368812811334898 Z M 36.11104548650546 54.67027902248941 C 25.860117457828956 54.67027902248941 17.555817068759012 46.365986091048185 17.555817068759012 36.115057818142226 C 17.555817068759012 25.86412954523627 25.860117457828956 17.559832786055267 36.11104548650546 17.559832786055267 C 46.353946745058884 17.559832786055267 54.66627007651223 25.86412954523627 54.66627007651223 36.115057818142226 C 54.66627007651223 46.365986091048185 46.353946745058884 54.67027902248941 36.11104548650546 54.67027902248941 Z M 55.4047865161915 21.200235323775026 C 53.00862195076287 21.200235323775026 51.07803971745564 19.26564516169024 51.07803971745564 16.873494163563635 C 51.07803971745564 14.481343165437028 53.00862195076287 12.546751089482353 55.4047865161915 12.546751089482353 C 57.79292383302958 12.546751089482353 59.727514188256286 14.481343165437028 59.727514188256286 16.873494163563635 C 59.727514188256286 19.26564516169024 57.79292383302958 21.200235323775026 55.4047865161915 21.200235323775026 Z" fill="rgb(198.68749290704727,118.21245476603508,59.93742138147354)"/>
        </svg>