<svg 
          width="72.27827453613281" 
          height="72.6230239868164" fill="none" 
          xmlns="http://www.w3.org/2000/svg">
          <path d="M 61.74721084074195 10.555112767239832 C 54.952331502737614 3.752215939083851 45.91654793109935 0.004008778458591814 36.291471269615286 0 C 16.456036689679827 0 0.3086761165110332 16.143351798716107 0.3006585596373164 35.98680346161839 C 0.3006585596373164 42.3286907507024 1.9562827310129363 48.51824403741166 5.103173759611875 53.97819999280289 L 0 72.6230239868164 L 19.07777497141873 67.61606537390334 C 24.33729217603991 70.48234173052127 30.254248672826037 71.99364524799901 36.275433495773555 71.99765402645761 L 36.291471269615286 71.99765402645761 C 56.122897361857525 71.99765402645761 72.2702569792591 55.85430605081038 72.27827453613281 36.0108543879081 C 72.27827453613281 26.39780409315418 68.54209017874628 17.358009595395814 61.74721084074195 10.555112767239832 Z M 36.291471269615286 65.92435739692132 L 36.2794438950012 65.92435739692132 C 30.911689876525408 65.92034861846273 25.64816275056019 64.48119572937784 21.0541027692576 61.751217751682226 L 19.963715743790594 61.10180068810261 L 8.642926449871672 64.07230226520353 L 11.661535597790065 53.036134653015324 L 10.951981664660819 51.90566083295289 C 7.957424398668952 47.14323239562565 6.3779665112423585 41.63918068595192 6.3779665112423585 35.98680346161839 C 6.385984068116075 19.49469029328834 19.803362855320852 6.077307028785679 36.30349482116051 6.077307028785679 C 44.29298998867685 6.081315807244271 51.80142983596922 9.19613746573167 57.44979854196542 14.848514690065198 C 63.0941582823848 20.504900879997287 66.20497249566299 28.01735068936211 66.20096371722613 36.0108543879081 C 66.19294616035242 52.50296755623815 52.775567373147645 65.92435739692132 36.291471269615286 65.92435739692132 Z M 52.69939846083878 43.519296665325186 C 51.79742337928134 43.06630472890535 47.379749759337756 40.893548746684125 46.55394143961295 40.59289036462315 C 45.73214190625861 40.29223198256218 45.134835126476176 40.14390521345791 44.53351836561425 41.04187157324861 C 43.93220160475232 41.939837933039314 42.20842519777702 43.964269744648405 41.68327525848318 44.565586508770345 C 41.15812531918934 45.166903272892284 40.63297514095369 45.2390641160473 39.73500878603127 44.79008093615195 C 38.837042431108856 44.3410977562566 35.938696157479235 43.39101765125083 32.50317322703165 40.32831106009204 C 29.829318153852213 37.94308787582986 28.025367333647374 35.0006412923102 27.50021739435353 34.09866620586274 C 26.975067455059687 33.196691119415284 27.444094415034634 32.71163202796898 27.89708634899859 32.26264884807363 C 28.301972965987776 31.86177101528158 28.795054436249085 31.212346514638295 29.244037613710294 30.687196572497374 C 29.693020791171502 30.162046630356453 29.841345468730847 29.7892318852993 30.14200384916181 29.18791512117736 C 30.442662229592774 28.586598357055422 30.294337208554587 28.061446025496455 30.065836848387374 27.612462845601105 C 29.84134525965677 27.159470909181273 28.04140229992291 22.733782052053378 27.29176074203074 20.933840605815217 C 26.566171902361404 19.190022049597044 25.82454905218374 19.42253161180996 25.27133766803204 19.398478941991772 C 24.75019651510867 19.374426272173586 24.148880172394897 19.366407217203296 23.551572197903443 19.366407217203296 C 22.950255437041516 19.366407217203296 21.976122439757365 19.590899613579563 21.150314120032558 20.488865973370267 C 20.32450580030775 21.390841059817724 18.00342380825903 23.563600178150143 18.00342380825903 27.989291275357456 C 18.00342380825903 32.414982372564765 21.226479149537116 36.69234926929221 21.675462326998325 37.29366603341415 C 22.124445504459533 37.89498279753609 28.017352449001713 46.97486205297305 37.037103503517926 50.87139454111814 C 39.185808697138974 51.79742234591884 40.86147530698069 52.35063582381055 42.164328189289115 52.7675487723037 C 44.317042109545184 53.45304987145562 46.277335120314866 53.35283321335688 47.82873227970901 53.12433285195086 C 49.556515680991254 52.867771030600984 53.14838074226822 50.95157122472949 53.8980223001604 48.85097145616581 C 54.647663858052574 46.750371687602126 54.647665918925625 44.95043245157566 54.42317433019502 44.57360730726912 C 54.19868274146441 44.196782162962585 53.593356029390726 43.968279845220536 52.69939846083878 43.519296665325186 Z" fill="rgb(42.933094426989555,236.93750202655792,26.063135862350464)"/>
        </svg>