<svg 
          width="72.27827453613281" 
          height="58.706790924072266" fill="none" 
          xmlns="http://www.w3.org/2000/svg">
          <path d="M 64.85257201700702 14.630723689734072 C 64.90038483849737 15.274357801479654 64.90038663336502 15.914314928186153 64.90038663336502 16.55427112320563 C 64.90038663336502 36.139137298344 49.993820462179585 58.706790924072266 22.75154626427525 58.706790924072266 C 14.358557072700922 58.706790924072266 6.561390280646238 56.27569284577221 0 52.05345299380182 C 1.1916426068345367 52.18953563864212 2.3391504322132617 52.23734565141019 3.578605901641991 52.23734565141019 C 10.504109115790818 52.23734565141019 16.877925588757716 49.89819302503241 21.97182989197845 45.90766132395035 C 15.458252473926407 45.77157867911005 10.000234579541655 41.50520645707209 8.117144944101463 35.63526341933411 C 9.032944344760391 35.77134606417441 9.95242226499865 35.86329480440383 10.91603447344665 35.86329480440383 C 12.24375972500748 35.86329480440383 13.578840261963167 35.67939902290368 14.818295731391897 35.35942092539394 C 8.025197300051456 33.983882810086484 2.9386495975484346 28.02199147056004 2.9386495975484346 20.820645318227864 L 2.9386495975484346 20.63674915309188 C 4.91368687703863 21.736444007187504 7.205024008216748 22.424211879680538 9.632444222562109 22.516159612865895 C 5.641912524823335 19.860709107519483 3.026919160460059 15.318492418557087 3.026919160460059 10.180453329575858 C 3.026919160460059 7.429377098960945 3.7588234374343337 4.9063311573133745 5.042413797929113 2.7069414491221244 C 12.335708026718912 11.692074089723619 23.29955536275975 17.565695482628655 35.5911281695819 18.20932959437424 C 35.36309779859793 17.10595676874739 35.22333583961808 15.962125817836124 35.22333583961808 14.814618101106248 C 35.22333583961808 6.649659410688038 41.82886002483823 0 50.03795392831255 0 C 54.304328558201334 0 58.15510259916209 1.7874632540879265 60.86204382679585 4.6782999914641294 C 64.20894135852316 4.034665879718546 67.4160772875039 2.7952102448360368 70.26277902178185 1.0996940868239602 C 69.16308416860755 4.538539265482363 66.82025620330711 7.429376879740469 63.74920204217076 9.264653654124073 C 66.73198642117501 8.940997639888229 69.62282403301116 8.117145718173722 72.27827453613281 6.969638001443846 C 70.26278033710472 9.904609520312837 67.74340875196127 12.519603763748876 64.85257201700702 14.630723689734072 Z" fill="rgb(14.385389685630798,173.83494168519974,224.18749898672104)"/>
        </svg>