<svg 
          width="72.27827453613281" 
          height="50.602413177490234" fill="none" 
          xmlns="http://www.w3.org/2000/svg">
          <path d="M 70.80792255706298 7.955851505375892 C 69.97730998972554 4.857305620998336 67.53963896058198 2.4124144969226204 64.44470438775514 1.5781905635798614 C 58.78931636958049 0.025306201337124357 36.1641549217377 0.000027433720631172102 36.1641549217377 0.000027433720631172102 C 36.1641549217377 0.000027433720631172102 13.542602418531581 -0.02525281840323168 7.883602872675071 1.4590157467100053 C 4.850061472140959 2.28601694757173 2.3437778208415123 4.7850787266955255 1.5059425748344364 7.8800132986460065 C 0.014451384444716942 13.535401315219271 0.00000529116253493305 25.265095617012015 0.00000529116253493305 25.265095617012015 C 0.00000529116253493305 25.265095617012015 -0.014440083622014876 37.052568334592785 1.4662170618565271 42.65017449131778 C 2.296829629193965 45.74510906326826 4.734498182919221 48.19000373903111 7.833044068174163 49.02422767237387 C 13.546213946213445 50.577112034616604 36.10998329803233 50.602385625008225 36.10998329803233 50.602385625008225 C 36.10998329803233 50.602385625008225 58.73514818993539 50.62766556538593 64.39053620811003 49.14700842032666 C 67.48185946850879 48.316395853224414 69.9303615290108 45.87512233774842 70.77180814125941 42.78018776579794 C 72.26691075170412 37.12841084639798 72.27774415085399 25.402327641778548 72.27774415085399 25.402327641778548 C 72.27774415085399 25.402327641778548 72.34997276720738 13.611239521949159 70.80792255706298 7.955851505375892 Z M 28.926992687217112 36.13167397926904 L 28.945049895118903 14.463520447934826 L 47.74939500769777 25.315654421498607 L 28.926992687217112 36.13167397926904 Z" fill="rgb(245.43749392032623,5.5223652720451355,5.5223652720451355)"/>
        </svg>